<svg width="52" height="52" viewBox="0 0 52 52" fill="none" xmlns="http://www.w3.org/2000/svg">
<circle cx="26" cy="26" r="24.8696" stroke="url(#paint0_linear_5_110)" stroke-width="2.26087"/>
<path d="M26.0031 13.5651C26.4566 13.5651 26.9028 13.5923 27.341 13.6413L27.6086 14.8864C27.9604 16.5276 29.078 17.7071 30.2453 18.3942C31.442 19.0986 33.0496 19.4926 34.674 18.9655L35.7619 18.612C35.9865 18.923 36.1987 19.2429 36.3937 19.5749L36.6193 19.9733H36.6203C36.8111 20.3247 36.9822 20.683 37.1369 21.0475L36.2277 21.8932C34.9868 23.0466 34.5305 24.6223 34.5305 26.0026C34.5305 27.383 34.9866 28.9594 36.2277 30.1129L37.131 30.9518C36.9768 31.3152 36.8056 31.6717 36.6154 32.0221L36.3849 32.4303C36.191 32.7601 35.9802 33.0783 35.757 33.3874L34.6682 33.0348C33.0438 32.5077 31.4361 32.9017 30.2394 33.6061C29.0723 34.2932 27.9545 35.4729 27.6027 37.1139L27.3361 38.3581C26.8976 38.4071 26.4511 38.4352 25.9973 38.4352C25.5431 38.4352 25.0962 38.4072 24.6574 38.3581L24.3908 37.112C24.0393 35.4721 22.9226 34.2936 21.756 33.6071C20.5573 32.9018 18.9463 32.5081 17.3205 33.0397L16.2424 33.3913C16.0184 33.081 15.806 32.7614 15.6115 32.4303L15.3732 32.0094C15.1871 31.6651 15.0198 31.3146 14.8683 30.9577L15.7678 30.1227C17.0114 28.967 17.4689 27.3875 17.4689 26.0026C17.4689 24.6222 17.0128 23.0466 15.7717 21.8932L14.8683 21.0534C15.0197 20.6966 15.1862 20.3458 15.3723 20.0016L15.6183 19.569C15.8114 19.2412 16.0214 18.9252 16.2433 18.6178L17.3312 18.9713C18.9556 19.4985 20.5633 19.1035 21.7599 18.3991C22.9271 17.712 24.0449 16.5333 24.3967 14.8922L24.6642 13.6432C25.1002 13.5928 25.5469 13.5651 26.0031 13.5651ZM26.0031 19.1491C24.1951 19.1491 22.4708 19.883 21.2072 21.1735C19.9453 22.4623 19.2444 24.2001 19.2443 26.0026C19.2443 27.8052 19.9452 29.5438 21.2072 30.8327C22.4708 32.1231 24.1952 32.8571 26.0031 32.8571C27.8109 32.857 29.5345 32.1229 30.798 30.8327C32.0601 29.5438 32.7609 27.8052 32.7609 26.0026C32.7609 24.2 32.06 22.4623 30.798 21.1735C29.5345 19.8831 27.811 19.1492 26.0031 19.1491Z" stroke="url(#paint1_linear_5_110)" stroke-width="4.52174"/>
<defs>
<linearGradient id="paint0_linear_5_110" x1="26" y1="0" x2="26" y2="52" gradientUnits="userSpaceOnUse">
<stop stop-color="white"/>
<stop offset="1" stop-color="#D6E2FF"/>
</linearGradient>
<linearGradient id="paint1_linear_5_110" x1="26" y1="11.3043" x2="26" y2="40.6957" gradientUnits="userSpaceOnUse">
<stop stop-color="white"/>
<stop offset="1" stop-color="#D6E2FF"/>
</linearGradient>
</defs>
</svg>
